HIERARCHY
ROOT Hips
{
    OFFSET 0.000000 0.000000 0.000000
    CHANNELS 6 Xposition Yposition Zposition Zrotation Xrotation Yrotation
    JOINT Spine
    {
        OFFSET -0.000000 14.517291 0.000000
        CHANNELS 3 Zrotation Xrotation Yrotation
        JOINT Spine1
        {
            OFFSET -0.000000 37.558300 0.000000
            CHANNELS 3 Zrotation Xrotation Yrotation
            JOINT Neck
            {
                OFFSET -0.000000 37.404057 3.400369
                CHANNELS 3 Zrotation Xrotation Yrotation
                JOINT Head
                {
                    OFFSET -0.000000 24.785618 -3.540803
                    CHANNELS 3 Zrotation Xrotation Yrotation
                    End Site
                    {
                        OFFSET -0.000000 35.408028 0.000000
                    }
                }
            }
            JOINT LeftShoulder
            {
                OFFSET 6.992933 33.973492 -0.192664
                CHANNELS 3 Zrotation Xrotation Yrotation
                JOINT LeftArm
                {
                    OFFSET 21.527611 0.000000 0.000000
                    CHANNELS 3 Zrotation Xrotation Yrotation
                    JOINT LeftForeArm
                    {
                        OFFSET 56.353916 0.000000 0.000000
                        CHANNELS 3 Zrotation Xrotation Yrotation
                        JOINT LeftHand
                        {
                            OFFSET 47.774071 0.000000 0.000000
                            CHANNELS 3 Zrotation Xrotation Yrotation
                            End Site
                            {
                                OFFSET 26.556021 0.000000 0.000000
                            }
                        }
                    }
                }
            }
            JOINT RightShoulder
            {
                OFFSET -7.065357 33.973492 -0.192664
                CHANNELS 3 Zrotation Xrotation Yrotation
                JOINT RightArm
                {
                    OFFSET -21.527611 0.000000 0.000000
                    CHANNELS 3 Zrotation Xrotation Yrotation
                    JOINT RightForeArm
                    {
                        OFFSET -56.353916 0.000000 0.000000
                        CHANNELS 3 Zrotation Xrotation Yrotation
                        JOINT RightHand
                        {
                            OFFSET -47.774071 0.000000 0.000000
                            CHANNELS 3 Zrotation Xrotation Yrotation
                            End Site
                            {
                                OFFSET -26.556021 0.000000 0.000000
                            }
                        }
                    }
                }
            }
        }
    }
    JOINT LeftUpLeg
    {
        OFFSET 17.704014 0.000000 0.000000
        CHANNELS 3 Zrotation Xrotation Yrotation
        JOINT LeftLeg
        {
            OFFSET -0.000000 -81.181816 0.000000
            CHANNELS 3 Zrotation Xrotation Yrotation
            JOINT LeftFoot
            {
                OFFSET -0.000000 -62.821102 0.000000
                CHANNELS 3 Zrotation Xrotation Yrotation
                JOINT LeftToeBase
                {
                    OFFSET -0.000000 -11.507608 26.556021
                    CHANNELS 3 Zrotation Xrotation Yrotation
                    End Site
                    {
                        OFFSET -0.000000 0.000000 7.081605
                    }
                }
            }
        }
    }
    JOINT RightUpLeg
    {
        OFFSET -17.704014 0.000000 0.000000
        CHANNELS 3 Zrotation Xrotation Yrotation
        JOINT RightLeg
        {
            OFFSET -0.000000 -81.181816 0.000000
            CHANNELS 3 Zrotation Xrotation Yrotation
            JOINT RightFoot
            {
                OFFSET -0.000000 -62.821102 0.000000
                CHANNELS 3 Zrotation Xrotation Yrotation
                JOINT RightToeBase
                {
                    OFFSET -0.000000 -11.507608 26.556021
                    CHANNELS 3 Zrotation Xrotation Yrotation
                    End Site
                    {
                        OFFSET -0.000000 0.000000 7.081605
                    }
                }
            }
        }
    }
}
MOTION
Frames:    10
Frame Time:    0.008333
18.550718    155.869308    -106.275665    2.089533    -8.468575    42.567520    -1.253728    -0.544092    1.283960    4.934136    5.996089    0.170420    -12.225501    7.848391    -20.011829    24.778271    2.017287    -16.904709    13.246686    0.013295    -11.062119    -34.401043    33.187950    29.853510    -17.928402    10.983560    -133.699203    -6.652040    -30.872749    -14.225035    -5.838913    6.344037    -5.051543    36.311008    -14.924131    46.960320    -19.600416    -5.500958    72.185577    -13.403631    4.942567    33.458271    16.922867    0.433819    -0.018988    -14.217352    34.489738    -17.504578    6.913990    -26.589266    42.911846    0.000000    0.000000    0.000000    -20.133347    -12.377339    -16.936975    13.060512    30.983824    -14.408701    11.310831    4.460344    -16.502735    0.000000    0.000000    0.000000    
18.573826    155.873001    -106.285713    2.077040    -8.450542    42.615345    -1.249452    -0.556047    1.246766    4.925315    6.001881    0.158376    -12.269547    7.813833    -20.038523    24.830988    2.006276    -16.916624    13.212734    0.028360    -11.131949    -34.276932    33.250584    29.774113    -17.997211    11.168282    -133.626373    -6.671104    -30.796810    -14.263465    -5.886711    6.326236    -5.071207    36.301579    -14.890275    46.979137    -19.627733    -5.503345    72.224457    -13.412237    4.971023    33.441086    16.916048    0.395429    -0.064096    -14.225911    34.488201    -17.518383    6.928965    -26.578835    42.924644    0.000000    0.000000    0.000000    -20.148540    -12.379004    -16.854403    13.113302    30.962133    -14.461940    11.347425    4.449575    -16.600773    0.000000    0.000000    0.000000    
18.598667    155.877823    -106.294014    2.066733    -8.443907    42.659687    -1.230277    -0.559354    1.199731    4.901402    6.010912    0.143474    -12.344035    7.785404    -20.056299    24.923233    1.998793    -16.913214    13.173423    0.034182    -11.212897    -34.146172    33.296684    29.737818    -18.084009    11.400496    -133.530350    -6.704306    -30.695036    -14.340713    -5.936727    6.314553    -5.062948    36.298618    -14.877842    46.988152    -19.621412    -5.502369    72.277962    -13.426058    4.984158    33.386715    16.917408    0.369435    -0.134104    -14.259868    34.488255    -17.513916    6.950119    -26.578932    42.960224    0.000000    0.000000    0.000000    -20.153440    -12.371854    -16.765802    13.159476    30.939634    -14.511147    11.368520    4.452164    -16.682779    0.000000    0.000000    0.000000    
18.624348    155.882507    -106.302788    2.058131    -8.435251    42.692055    -1.222831    -0.565327    1.159948    4.891995    6.024627    0.130070    -12.395958    7.784329    -20.078789    24.987688    1.935604    -16.910938    13.133666    0.041470    -11.286686    -34.061882    33.389263    29.712265    -18.177691    11.559549    -133.451050    -6.702144    -30.695822    -14.378469    -5.994745    6.296631    -5.065481    36.300301    -14.879723    47.010681    -19.604036    -5.470534    72.327118    -13.444218    5.010729    33.383659    16.909803    0.351426    -0.180358    -14.265456    34.478065    -17.510918    6.958867    -26.570667    42.963703    0.000000    0.000000    0.000000    -20.161840    -12.367458    -16.718496    13.184366    30.923544    -14.525291    11.397464    4.444806    -16.747684    0.000000    0.000000    0.000000    
18.650459    155.889465    -106.313118    2.057092    -8.434120    42.707909    -1.211764    -0.549990    1.127081    4.874443    6.026690    0.119898    -12.457553    7.786949    -20.100981    25.058994    1.878143    -16.908302    13.098975    0.074983    -11.342063    -33.929146    33.434978    29.631414    -18.280178    11.756924    -133.341599    -6.675172    -30.656240    -14.406281    -6.054230    6.279704    -5.056654    36.303715    -14.978378    47.008297    -19.467268    -5.314083    72.451881    -13.545028    5.063833    33.399681    16.899883    0.349482    -0.218417    -14.277975    34.464993    -17.495810    6.954502    -26.572460    42.973679    0.000000    0.000000    0.000000    -20.166464    -12.361181    -16.666004    13.204260    30.907784    -14.543420    11.420147    4.450792    -16.810596    0.000000    0.000000    0.000000    
18.672647    155.895752    -106.324493    2.050074    -8.422989    42.716221    -1.214617    -0.550691    1.094476    4.872123    6.037828    0.108785    -12.517707    7.784601    -20.118652    25.118933    1.818815    -16.901388    13.061450    0.102366    -11.395697    -33.835846    33.490673    29.575703    -18.349886    11.866918    -133.245132    -6.702860    -30.622517    -14.423211    -6.108251    6.275470    -5.049846    36.268322    -14.893189    47.049324    -19.563498    -5.429037    72.413147    -13.455443    5.029073    33.477760    16.890688    0.340344    -0.254847    -14.298445    34.448975    -17.485588    6.974176    -26.555656    42.995213    0.000000    0.000000    0.000000    -20.171417    -12.367720    -16.634897    13.207520    30.893457    -14.554510    11.440855    4.462447    -16.843887    0.000000    0.000000    0.000000    
18.696774    155.904083    -106.333519    2.042062    -8.421873    42.710033    -1.214412    -0.543856    1.070521    4.879540    6.044002    0.099925    -12.602808    7.815371    -20.132685    25.210522    1.731557    -16.882221    13.020843    0.143434    -11.435790    -33.667709    33.502449    29.457077    -18.445560    12.063312    -133.112396    -6.660940    -30.543207    -14.456258    -6.168457    6.269636    -5.033675    36.242836    -14.915499    47.069672    -19.544758    -5.401475    72.441551    -13.489399    5.033659    33.523327    16.884024    0.345840    -0.283128    -14.309369    34.431076    -17.450123    6.972216    -26.555521    42.990898    0.000000    0.000000    0.000000    -20.161655    -12.365960    -16.604876    13.198727    30.870367    -14.545123    11.431736    4.479055    -16.868904    0.000000    0.000000    0.000000    
18.726868    155.913208    -106.343254    2.037139    -8.412445    42.697346    -1.209916    -0.542615    1.046221    4.860111    6.049792    0.092703    -12.658131    7.818982    -20.150293    25.253592    1.683341    -16.880737    12.988635    0.153265    -11.483942    -33.692787    33.665771    29.464428    -18.418913    11.949689    -133.074387    -6.651498    -30.541792    -14.461236    -6.214246    6.267989    -5.025387    36.222786    -14.914063    47.100941    -19.542164    -5.395761    72.453995    -13.483639    5.040700    33.536846    16.867805    0.353330    -0.296851    -14.326591    34.406429    -17.407333    6.971301    -26.551603    42.992889    0.000000    0.000000    0.000000    -20.164881    -12.364978    -16.603994    13.189186    30.839489    -14.544720    11.447283    4.497492    -16.877522    0.000000    0.000000    0.000000    
18.753851    155.924240    -106.353935    2.025422    -8.397536    42.668297    -1.220710    -0.543676    1.038509    4.869321    6.048385    0.089660    -12.709337    7.790562    -20.168137    25.271526    1.675548    -16.888149    12.940165    0.133437    -11.550961    -33.619705    33.737019    29.440535    -18.479218    12.058045    -133.012436    -6.480968    -30.549675    -14.358629    -6.261577    6.254194    -5.025453    36.171455    -14.874834    47.109188    -19.578022    -5.442574    72.460823    -13.455937    5.028693    33.559265    16.850765    0.361579    -0.290545    -14.321186    34.378693    -17.409233    6.965928    -26.547091    43.002281    0.000000    0.000000    0.000000    -20.163319    -12.380110    -16.601698    13.169276    30.814657    -14.528831    11.452425    4.522100    -16.884369    0.000000    0.000000    0.000000    
18.778290    155.936783    -106.358978    2.014317    -8.394566    42.631111    -1.216830    -0.544507    1.031802    4.859382    6.055561    0.087571    -12.738328    7.798532    -20.174646    25.271946    1.628821    -16.883232    12.904829    0.145582    -11.594621    -33.526440    33.793175    29.380932    -18.525286    12.127754    -132.917557    -6.390531    -30.510994    -14.326329    -6.306096    6.229023    -4.999317    36.154663    -14.920765    47.105400    -19.521986    -5.376149    72.509109    -13.461470    5.063017    33.563725    16.838877    0.382142    -0.278036    -14.308217    34.354568    -17.411140    6.973132    -26.538792    43.023434    0.000000    0.000000    0.000000    -20.148911    -12.379637    -16.596285    13.149687    30.770218    -14.531407    11.449083    4.554335    -16.869802    0.000000    0.000000    0.000000    
